<?xml version="1.0" encoding="utf-8"?>
<!-- Generator: Adobe Illustrator 27.9.0, SVG Export Plug-In . SVG Version: 6.00 Build 0)  -->
<svg version="1.1" id="svg2" xmlns="http://www.w3.org/2000/svg" xmlns:xlink="http://www.w3.org/1999/xlink" x="0px" y="0px"
	 viewBox="0 0 96 96" style="enable-background:new 0 0 96 96;" xml:space="preserve">
<style type="text/css">
	.st0{fill-rule:evenodd;clip-rule:evenodd;fill:#34377B;}
	.st1{fill-rule:evenodd;clip-rule:evenodd;fill:#C3010D;}
	.st2{fill-rule:evenodd;clip-rule:evenodd;fill:#FFFFFF;}
	.st3{fill-rule:evenodd;clip-rule:evenodd;fill:#002079;}
	.st4{fill:#1F1A17;}
	.st5{fill-rule:evenodd;clip-rule:evenodd;fill:#1F1A17;}
	.st6{fill-rule:evenodd;clip-rule:evenodd;fill:#E7B400;}
	.st7{fill:none;}
</style>
<g>
	<path id="_48799656" class="st0" d="M8.5,13.3L20.7,1c8.5,7.5,19.6,7.1,27.1,0c8.2,6.5,17.2,7.8,27.3,0l12.3,12.3
		c-6.4,4.5-11.1,15.3-9,25.9c1.2,6.1,2,11.7,2,17.6c-0.4,13-6.8,22.7-19.2,28.1C54.5,87.8,50.6,91,47.8,95c-3.9-5.5-9-8.1-13.5-10.1
		c-12.1-5.5-18.6-14.8-19.1-28.1c-0.1-6.1,1.2-11.9,2.1-17.6C19.6,25,14.3,19,8.5,13.3L8.5,13.3z"/>
	<path id="_48799360" class="st1" d="M15.2,56.7c0.5,13.3,7,22.6,19.1,28.1c4.5,2.1,9.7,4.7,13.5,10.1c2.8-4,6.7-7.2,13.5-10.1
		c12.4-5.4,18.8-15.1,19.2-28.1l-4.4-5.2H19.7L15.2,56.7L15.2,56.7z"/>
	<path id="_48798600" class="st2" d="M20.1,72.8c2.6-0.4,3.8,2.4,6,2.1c2.5-0.3,5.1-2.3,7.3-2.1l35.4,2c1.5-0.1,2.5-0.6,3.9-1.4
		c1.4-0.9,1.8-0.9,3.1-0.9c-1.6,2.4-3.6,4.9-6.2,7.1c-2.7,0-4.5-1.7-7.2-2c-1.1-0.1-2.3,0.3-3.4,0.9c-1.5,0.7-3.1,1.4-4.8,1.4
		c-1.3,0-2.2-1.1-3.3-1.7c-1-0.5-1.9-0.8-2.8-0.8c-0.2,0-0.4,0-0.6,0c-1,0.1-1.9,0.4-2.8,0.9c-1.1,0.6-1.9,1.5-3.2,1.6
		c-0.7,0.1-1.4,0-1.9-0.2C38,79,35.4,77,33.1,77.4c-2.5,0.5-3.8,2.3-6.6,2.3C23.5,77.4,21.6,75.1,20.1,72.8L20.1,72.8L20.1,72.8z
		 M16.3,63.4c1.6-0.3,3.3-1.5,6.7,0.4c1.5,0.8,3.5,1.2,5.3,0.9c3.3-0.5,6.4-0.9,9.6-0.2c2,0.4,3.9,0.3,5.4-0.4c2-0.9,3.8-1.2,6-1.2
		c2.9,0.1,3.7,1.9,6.6,1.6c1.5-0.1,3.6-2.5,7-2.2c2.8,0.2,5.9,3.5,8.3,1.9c2.9-1.9,5.4-2.5,8.2-0.9c-0.3,1.5-0.8,3-1.3,4.4
		c-0.7-0.1-3.5-1.4-5.9,0.7c-1.3,1.2-3,1.4-5,0.9c-4-1-8.3,0.6-12.5,0.1c-2.5-0.3-5-2.1-7.5-2.1c-1.6,0-2.9,1.5-5.1,1.3
		c-3.7-0.3-7.1-1-10.8-0.7c-1.2,0.1-4.4,2.5-6.3,1.5c-3.3-1.7-4.6-2.2-7.5-1.7C17.1,66.3,16.6,64.8,16.3,63.4L16.3,63.4L16.3,63.4z"
		/>
	<path id="_48358552" class="st3" d="M8.5,13.3L20.7,1c8.5,7.5,19.6,7.1,27.1,0c8.2,6.5,17.2,7.8,27.3,0l12.3,12.3
		c-6.4,4.5-11.1,15.3-9,25.9c1.2,6.1,2,11.7,2,17.6l-4.4-5.2l-56.4,0l-4.5,5.1c-0.1-6.1,1.2-11.9,2.1-17.6C19.6,25,14.3,19,8.5,13.3
		L8.5,13.3z"/>
	<path id="_48357912" class="st2" d="M76,51.6l-2.9-11.7l1.8-2.1V27.2l-2.8-3l-2.7,3v4.2h-3.7v3.9h-6.6v-3.7l-2,0V19.4l2.4-2.3V9.7
		h-4.6v3.2h-4.1V9.7H45v3.2h-4.1V9.7h-4.6v7.4l2.4,2.3v12.2l-2,0v3.7h-6.6v-3.9h-3.7v-4.2l-2.7-3l-2.8,3v10.6l1.8,2.1l-2.9,11.7
		L76,51.6L76,51.6z"/>
	<path id="_48797152" class="st4" d="M41.3,39.9v3h0.9v-2C41.9,40.5,41.6,40.1,41.3,39.9z M40.2,39.2v3.7h0.9v-3.2
		C40.8,39.5,40.5,39.3,40.2,39.2L40.2,39.2z M38.9,42.9H40l0-3.8c-0.3-0.1-0.7-0.2-1.1-0.2L38.9,42.9L38.9,42.9z M53.6,50v1.5h0.8
		V50H53.6z M54.6,51.5h0.9V50h-0.9V51.5z M55.7,51.5h1.1V50h-1.1V51.5z M54.4,44.2h-0.8v4.5h0.8V44.2z M55.5,44.2h-0.9v4.5h0.9V44.2
		z M56.8,48.6v-4.5h-1.1v4.5H56.8z M54.5,39.8c-0.4,0.3-0.6,0.6-0.9,1v2.1h0.9V39.8z M55.5,39.2c-0.3,0.1-0.6,0.3-0.9,0.5v3.2h0.9
		V39.2z M56.8,42.9v-4c-0.4,0-0.8,0.1-1.1,0.2v3.8H56.8z M56.8,49.8v-1h-0.3v1H56.8z M56.8,44v-0.9h-0.3V44H56.8z M58.9,51.5v-3.8
		H58v3.8H58.9z M57.8,51.5V38.8H57v12.7H57.8z M58,47.5h5.3V43H58L58,47.5z M71.3,40l-1.3-1.4h-2.2v4.2h6.1c-0.2-1-0.5-1.9-0.8-2.8
		H71.3L71.3,40L71.3,40z M73.8,43H71l0,4.5h3.9C74.5,46,74.2,44.5,73.8,43z M73.1,39.8l1.6-1.9h-5.2l1.8,1.9H73.1z M63.5,47.5h7.2
		l0-4.5h-7.3L63.5,47.5L63.5,47.5z M67.5,38.6h-8.4v4.2h8.4V38.6z M67.5,51.5v-3.8h-8.4v3.8H67.5z M47.8,20.1h-8.9v3.8h8.9
		L47.8,20.1L47.8,20.1z M47.9,19.9h9v-0.4l-9,0C47.9,19.5,47.9,19.9,47.9,19.9z M47.8,19.5h-8.9v0.4h8.9L47.8,19.5L47.8,19.5z
		 M47.9,19.3h9l2.2-2.1H47.9L47.9,19.3L47.9,19.3L47.9,19.3z M47.8,17.1l-11.2,0l2.2,2.1l9,0L47.8,17.1L47.8,17.1L47.8,17.1z
		 M50.6,9.8h-5.5v3.2h-4.3V9.8h-4.3V17h22.9V9.8h-4.4v3.2h-4.3L50.6,9.8L50.6,9.8L50.6,9.8z M76.1,51.7H19.6
		c1.1-3.9,1.8-7.9,2.9-11.8l-1.8-2.1V27.2l2.9-3.1l2.9,3.1v4.2h3.7v3.9h6.3v-3.7l2.1,0V19.4l-2.4-2.3V9.6H41v3.2h4V9.6h5.8v3.2h4
		V9.6h4.7v7.5l-2.4,2.3v12.1l2,0v3.7h6.4v-3.9h3.6v-4.2l2.8-3.1l2.9,3.1v10.7l-1.8,2.1C74.3,43.8,75,47.8,76.1,51.7L76.1,51.7
		L76.1,51.7z M47.9,23.9h9v-3.8h-9V23.9z M38.8,29.7h8.9v-5.6h-8.9V29.7z M47.9,29.7h9v-5.6h-9L47.9,29.7L47.9,29.7z M69.5,27.1h5.1
		l-2.6-2.8L69.5,27.1z M69.4,37.6h5.4V27.3h-5.4V37.6z M47.9,37.6h21.2v-6.1h-3.4v3.9h-6.8v-3.7h-6v-0.2h4v-1.6h-9v5.3h1.9v0.2h-1.9
		L47.9,37.6L47.9,37.6z M47.8,35.4h-1.9v-0.2h1.9v-5.3h-8.9v1.6h3.9v0.2h-6v3.7H30v-3.9h-3.5v6.1h21.2L47.8,35.4L47.8,35.4
		L47.8,35.4z M26.4,37.6V27.3H21v10.3H26.4z M26.2,27.1l-2.5-2.8l-2.6,2.8L26.2,27.1C26.2,27.1,26.2,27.1,26.2,27.1z M22.7,39.8h1.7
		l1.8-1.9h-5.2C21.1,37.8,22.7,39.8,22.7,39.8z M24.5,40h-1.8c-0.2,1-0.5,1.9-0.7,2.8h6v-4.2h-2.2L24.5,40L24.5,40z M26.6,37.8
		L26,38.4h19.8c0.4-0.2,0.8-0.3,1.1-0.4l0-0.2H26.6C26.6,37.8,26.6,37.8,26.6,37.8z M32.3,47.5V43H25v4.5H32.3z M22,43
		c-0.4,1.5-0.7,3-1.1,4.5h4V43C24.8,43,22,43,22,43z M20.8,47.7c-0.3,1.3-0.6,2.5-1,3.8h8.3v-3.8H20.8z M28.4,51.5h8.3v-3.8h-8.3
		V51.5z M37.7,47.5V43h-5.3v4.5H37.7z M28.2,38.6v4.2h8.4v-4.2H28.2z M42.3,51.5h11.1V50h-1.9v-1.3h1.9v-4.5h-1.9v-1.3h0.6
		c0.2-0.5,0.4-0.8,0.6-1.2c-0.6-1.8-2.2-3.2-4-3.5l-0.2,1l-0.2,0l0.2-1.3h-1.5l0.2,1.4l-0.2,0l-0.2-1c-0.4,0-0.7,0.2-1.1,0.3
		c-1.4,0.7-2.2,1.7-2.9,3.2c0.2,0.4,0.4,0.7,0.6,1.1h0.6v1.3h-1.8v4.5h1.8V50h-1.8L42.3,51.5L42.3,51.5z M36.8,38.6v4.2h0.9v-4.2
		l1,0c1.8,0,3.1,1.2,4.1,2.9c0.4-1.1,1.4-2.3,2.6-3H36.8L36.8,38.6L36.8,38.6z M37.9,51.5h0.8V38.8l-0.8,0V51.5L37.9,51.5z
		 M36.8,51.5h0.9v-3.8h-0.9V51.5z M74.9,47.7h-7.2v3.8h8.2C75.5,50.2,75.2,49,74.9,47.7L74.9,47.7L74.9,47.7z M42.1,50h-0.9v1.5h0.9
		V50z M41.1,51.5V50h-0.9v1.5H41.1z M40,51.5V50h-1.1v1.5H40z M38.9,49.8h0.3v-1h-0.3V49.8z M38.9,48.6H40v-4.5h-1.1V48.6z M38.9,44
		h0.3v-0.9h-0.3V44z M42.4,41.1v1.8h1C43.1,42.3,42.7,41.6,42.4,41.1z M40.2,44.2v4.5h0.9v-4.5H40.2z M41.3,44.2v4.5h0.9v-4.5H41.3z
		 M43.9,43.1h-4.5V44h4.5V43.1z M43.9,48.8h-4.5v1h4.5V48.8z M51.8,43.1V44h4.5v-0.9H51.8z M51.8,48.8v1h4.5v-1H51.8z M58.9,38.6
		h-8.6c1.2,0.6,2.2,1.7,2.6,2.9c1.1-1.9,2.2-2.7,4.1-2.9l1,0v4.2h0.9L58.9,38.6L58.9,38.6L58.9,38.6z M53.4,41.1
		c-0.4,0.6-0.8,1.2-1.1,1.8h1.1L53.4,41.1L53.4,41.1z M69.2,37.8H48.8l0,0.2c0.4,0.1,0.8,0.2,1.1,0.4h19.9L69.2,37.8L69.2,37.8
		L69.2,37.8z"/>
	<path id="_49102512" class="st5" d="M43.4,35.4H46v-5.6h-3.2v1.9h0.7L43.4,35.4L43.4,35.4L43.4,35.4z M52.4,35.4h-2.7l0-5.6H53
		l0,1.9h-0.6L52.4,35.4L52.4,35.4L52.4,35.4z M42.7,21.6H46v5.3h-3.2L42.7,21.6L42.7,21.6z M49.8,21.6H53v5.3h-3.2
		C49.8,26.9,49.8,21.6,49.8,21.6z M22.9,28.6h1.6v4.9h-1.6V28.6z M71.3,28.6h1.6v4.9h-1.6V28.6z"/>
	<path id="_49101872" class="st3" d="M50.5,51.5l-5.4,0l0-8.1c0-3,5.1-3.4,5.3-0.1L50.5,51.5L50.5,51.5z"/>
	<path id="_49818904" class="st5" d="M45.2,51.6v-8.1c0-3,5-3.4,5.2-0.1v8.2l1.7,0v-1.6h-0.6v-1.3h0.6v-4.5h-0.6v-1.3h0.6
		c-0.2-2.4-2-3.6-3.7-3.7c-0.2,0-0.3,0-0.5,0c-0.2,0-0.4,0-0.6,0c-1.7,0.2-3.2,1.5-3.7,3.7h0.6v1.3h-0.6v4.5h0.6v1.3h-0.6v1.6
		L45.2,51.6L45.2,51.6L45.2,51.6z"/>
	<path id="_49819584" class="st6" d="M22.2,61.1l4.3,1.8c0,0.4,0,0.7,0.5,1c0.8,0.4,2.7,1.5,4,2.6c0.6,5.6,4.4,9.9,12,12.8
		c3.1-2.6,6.4-2.7,9.6,0c3.1-1,6.5-2.1,9.1-4.1l7.1,0c-0.1-2.7-1.1-4.1-2.4-5c1.2-1.6,1.7-3.4,1.7-5.3h2.4v-1.5l-1.5-1.3h-5.8
		L62,63.4v1.5h1.6c-10.3,8.5-19.2,5.6-27.9-0.4l0,0c-1.1-0.9-2.2-2-2.9-3.2L22.2,60L22.2,61.1L22.2,61.1L22.2,61.1z"/>
	<path id="_49766344" class="st2" d="M43.4,71.5c0.4,0,0.8,0.4,0.8,0.8c0,0.4-0.4,0.8-0.8,0.8c-0.4,0-0.8-0.4-0.8-0.8
		S42.9,71.5,43.4,71.5z"/>
	<path id="_48960560" class="st4" d="M43.4,71.4L43.4,71.4c0.2,0,0.5,0.1,0.6,0.3c0.2,0.2,0.3,0.4,0.3,0.6v0c0,0.2-0.1,0.5-0.3,0.6
		h0c-0.2,0.2-0.4,0.3-0.6,0.3h0c-0.2,0-0.5-0.1-0.6-0.3c-0.2-0.2-0.3-0.4-0.3-0.6v0c0-0.2,0.1-0.5,0.3-0.6
		C42.9,71.5,43.1,71.4,43.4,71.4L43.4,71.4L43.4,71.4z M43.4,71.6L43.4,71.6c-0.2,0-0.4,0.1-0.5,0.2c-0.1,0.1-0.2,0.3-0.2,0.5v0
		c0,0.2,0.1,0.4,0.2,0.5c0.1,0.1,0.3,0.2,0.5,0.2h0c0.2,0,0.4-0.1,0.5-0.2l0,0c0.1-0.1,0.2-0.3,0.2-0.5v0c0-0.2-0.1-0.4-0.2-0.5
		C43.7,71.6,43.5,71.6,43.4,71.6L43.4,71.6z"/>
	<path id="_47871768" class="st2" d="M39.5,72.4c0.4,0,0.8,0.4,0.8,0.8c0,0.4-0.4,0.8-0.8,0.8c-0.4,0-0.8-0.4-0.8-0.8
		C38.7,72.8,39.1,72.4,39.5,72.4z"/>
	<path id="_48489112" class="st4" d="M39.5,72.3L39.5,72.3c0.2,0,0.5,0.1,0.6,0.3c0.2,0.2,0.3,0.4,0.3,0.6v0c0,0.2-0.1,0.5-0.3,0.6
		h0c-0.2,0.2-0.4,0.3-0.6,0.3h0c-0.2,0-0.5-0.1-0.6-0.3c-0.2-0.2-0.3-0.4-0.3-0.6v0c0-0.2,0.1-0.5,0.3-0.6
		C39.1,72.4,39.3,72.3,39.5,72.3L39.5,72.3z M39.5,72.5L39.5,72.5c-0.2,0-0.4,0.1-0.5,0.2c-0.1,0.1-0.2,0.3-0.2,0.5v0
		c0,0.2,0.1,0.4,0.2,0.5c0.1,0.1,0.3,0.2,0.5,0.2h0c0.2,0,0.4-0.1,0.5-0.2l0,0c0.1-0.1,0.2-0.3,0.2-0.5v0c0-0.2-0.1-0.4-0.2-0.5
		C39.9,72.6,39.7,72.5,39.5,72.5z"/>
	<path id="_48961768" class="st2" d="M40.6,75.2c0.4,0,0.8,0.4,0.8,0.8s-0.4,0.8-0.8,0.8c-0.4,0-0.8-0.4-0.8-0.8
		S40.2,75.2,40.6,75.2z"/>
	<path id="_49003856" class="st4" d="M40.6,75.1L40.6,75.1c0.2,0,0.5,0.1,0.6,0.3c0.2,0.2,0.3,0.4,0.3,0.6v0c0,0.2-0.1,0.5-0.3,0.6
		h0c-0.2,0.2-0.4,0.3-0.6,0.3h0c-0.2,0-0.5-0.1-0.6-0.3c-0.2-0.2-0.3-0.4-0.3-0.6v0c0-0.2,0.1-0.5,0.3-0.6
		C40.1,75.2,40.3,75.1,40.6,75.1L40.6,75.1z M40.6,75.2L40.6,75.2c-0.2,0-0.4,0.1-0.5,0.2c-0.1,0.1-0.2,0.3-0.2,0.5v0
		c0,0.2,0.1,0.4,0.2,0.5c0.1,0.1,0.3,0.2,0.5,0.2h0c0.2,0,0.4-0.1,0.5-0.2l0,0c0.1-0.1,0.2-0.3,0.2-0.5v0c0-0.2-0.1-0.4-0.2-0.5
		C41,75.3,40.8,75.2,40.6,75.2L40.6,75.2z"/>
	<path id="_49692392" class="st2" d="M44.8,74.5c0.4,0,0.8,0.4,0.8,0.8s-0.4,0.8-0.8,0.8c-0.4,0-0.8-0.4-0.8-0.8
		S44.4,74.5,44.8,74.5z"/>
	<path id="_49692616" class="st4" d="M44.8,74.4L44.8,74.4c0.2,0,0.5,0.1,0.6,0.3c0.2,0.2,0.3,0.4,0.3,0.6v0c0,0.2-0.1,0.5-0.3,0.6
		h0c-0.2,0.2-0.4,0.3-0.6,0.3h0c-0.2,0-0.5-0.1-0.6-0.3c-0.2-0.2-0.3-0.4-0.3-0.6v0c0-0.2,0.1-0.5,0.3-0.6
		C44.3,74.5,44.5,74.4,44.8,74.4L44.8,74.4L44.8,74.4z M44.8,74.6L44.8,74.6c-0.2,0-0.4,0.1-0.5,0.2c-0.1,0.1-0.2,0.3-0.2,0.5v0
		c0,0.2,0.1,0.4,0.2,0.5c0.1,0.1,0.3,0.2,0.5,0.2h0c0.2,0,0.4-0.1,0.5-0.2l0,0c0.1-0.1,0.2-0.3,0.2-0.5v0c0-0.2-0.1-0.4-0.2-0.5
		C45.2,74.7,45,74.6,44.8,74.6L44.8,74.6z"/>
	<path id="_48610576" class="st2" d="M47.8,72.4c0.4,0,0.8,0.4,0.8,0.8c0,0.4-0.4,0.8-0.8,0.8c-0.4,0-0.8-0.4-0.8-0.8
		C47,72.8,47.4,72.4,47.8,72.4z"/>
	<path id="_48611312" class="st4" d="M47.8,72.4L47.8,72.4c0.2,0,0.5,0.1,0.6,0.3c0.2,0.2,0.3,0.4,0.3,0.6v0c0,0.2-0.1,0.5-0.3,0.6
		h0c-0.2,0.2-0.4,0.3-0.6,0.3h0c-0.2,0-0.5-0.1-0.6-0.3c-0.2-0.2-0.3-0.4-0.3-0.6v0c0-0.2,0.1-0.5,0.3-0.6
		C47.3,72.5,47.6,72.4,47.8,72.4L47.8,72.4L47.8,72.4z M47.8,72.5L47.8,72.5c-0.2,0-0.4,0.1-0.5,0.2c-0.1,0.1-0.2,0.3-0.2,0.5v0
		c0,0.2,0.1,0.4,0.2,0.5c0.1,0.1,0.3,0.2,0.5,0.2h0c0.2,0,0.4-0.1,0.5-0.2l0,0c0.1-0.1,0.2-0.3,0.2-0.5v0c0-0.2-0.1-0.4-0.2-0.5
		C48.2,72.6,48,72.5,47.8,72.5L47.8,72.5z"/>
	<path id="_48978264" class="st2" d="M52.6,72.2c0.4,0,0.8,0.4,0.8,0.8s-0.4,0.8-0.8,0.8c-0.4,0-0.8-0.4-0.8-0.8
		C51.8,72.5,52.2,72.2,52.6,72.2z"/>
	<path id="_48566232" class="st4" d="M52.6,72.1L52.6,72.1c0.2,0,0.5,0.1,0.6,0.3c0.2,0.2,0.3,0.4,0.3,0.6v0c0,0.2-0.1,0.5-0.3,0.6
		h0c-0.2,0.2-0.4,0.3-0.6,0.3h0c-0.2,0-0.5-0.1-0.6-0.3c-0.2-0.2-0.3-0.4-0.3-0.6v0c0-0.2,0.1-0.5,0.3-0.6
		C52.2,72.2,52.4,72.1,52.6,72.1L52.6,72.1L52.6,72.1z M52.6,72.3L52.6,72.3c-0.2,0-0.4,0.1-0.5,0.2c-0.1,0.1-0.2,0.3-0.2,0.5v0
		c0,0.2,0.1,0.4,0.2,0.5c0.1,0.1,0.3,0.2,0.5,0.2h0c0.2,0,0.4-0.1,0.5-0.2l0,0c0.1-0.1,0.2-0.3,0.2-0.5v0c0-0.2-0.1-0.4-0.2-0.5
		C53,72.3,52.8,72.3,52.6,72.3L52.6,72.3z"/>
	<path id="_48979920" class="st2" d="M56.4,73.5c0.4,0,0.8,0.4,0.8,0.8s-0.4,0.8-0.8,0.8s-0.8-0.4-0.8-0.8S56,73.5,56.4,73.5z"/>
	<path id="_48979128" class="st4" d="M56.4,73.4L56.4,73.4c0.2,0,0.5,0.1,0.6,0.3c0.2,0.2,0.3,0.4,0.3,0.6v0c0,0.2-0.1,0.5-0.3,0.6
		h0c-0.2,0.2-0.4,0.3-0.6,0.3h0c-0.2,0-0.5-0.1-0.6-0.3c-0.2-0.2-0.3-0.4-0.3-0.6v0c0-0.2,0.1-0.5,0.3-0.6
		C56,73.5,56.2,73.4,56.4,73.4L56.4,73.4z M56.4,73.6L56.4,73.6c-0.2,0-0.4,0.1-0.5,0.2c-0.1,0.1-0.2,0.3-0.2,0.5v0
		c0,0.2,0.1,0.4,0.2,0.5c0.1,0.1,0.3,0.2,0.5,0.2h0c0.2,0,0.4-0.1,0.5-0.2l0,0c0.1-0.1,0.2-0.3,0.2-0.5v0c0-0.2-0.1-0.4-0.2-0.5
		C56.8,73.7,56.6,73.6,56.4,73.6L56.4,73.6z"/>
	<path id="_48977080" class="st2" d="M50.9,74.9c0.4,0,0.8,0.4,0.8,0.8c0,0.4-0.4,0.8-0.8,0.8c-0.4,0-0.8-0.4-0.8-0.8
		C50.1,75.2,50.4,74.9,50.9,74.9z"/>
	<path id="_48451528" class="st4" d="M50.9,74.8L50.9,74.8c0.2,0,0.5,0.1,0.6,0.3c0.2,0.2,0.3,0.4,0.3,0.6v0c0,0.2-0.1,0.5-0.3,0.6
		h0c-0.2,0.2-0.4,0.3-0.6,0.3h0c-0.2,0-0.5-0.1-0.6-0.3c-0.2-0.2-0.3-0.4-0.3-0.6v0c0-0.2,0.1-0.5,0.3-0.6
		C50.4,74.9,50.6,74.8,50.9,74.8L50.9,74.8z M50.9,75L50.9,75c-0.2,0-0.4,0.1-0.5,0.2c-0.1,0.1-0.2,0.3-0.2,0.5v0
		c0,0.2,0.1,0.4,0.2,0.5c0.1,0.1,0.3,0.2,0.5,0.2h0c0.2,0,0.4-0.1,0.5-0.2l0,0c0.1-0.1,0.2-0.3,0.2-0.5v0c0-0.2-0.1-0.4-0.2-0.5
		C51.2,75,51.1,75,50.9,75L50.9,75z"/>
	<path id="_48828120" class="st2" d="M55.4,76.1c0.4,0,0.8,0.4,0.8,0.8c0,0.4-0.4,0.8-0.8,0.8c-0.4,0-0.8-0.4-0.8-0.8
		S54.9,76.1,55.4,76.1z"/>
	<path id="_48826744" class="st4" d="M55.4,76L55.4,76c0.2,0,0.5,0.1,0.6,0.3c0.2,0.2,0.3,0.4,0.3,0.6v0c0,0.2-0.1,0.5-0.3,0.6h0
		c-0.2,0.2-0.4,0.3-0.6,0.3h0c-0.2,0-0.5-0.1-0.6-0.3c-0.2-0.2-0.3-0.4-0.3-0.6v0c0-0.2,0.1-0.5,0.3-0.6C54.9,76.1,55.1,76,55.4,76
		L55.4,76L55.4,76z M55.4,76.2L55.4,76.2c-0.2,0-0.4,0.1-0.5,0.2c-0.1,0.1-0.2,0.3-0.2,0.5v0c0,0.2,0.1,0.4,0.2,0.5
		c0.1,0.1,0.3,0.2,0.5,0.2h0c0.2,0,0.4-0.1,0.5-0.2l0,0c0.1-0.1,0.2-0.3,0.2-0.5v0c0-0.2-0.1-0.4-0.2-0.5
		C55.7,76.3,55.6,76.2,55.4,76.2L55.4,76.2z"/>
	<path id="_49918344" class="st5" d="M56.8,74.2l2.2,4.2l-0.5,0.2l-2.3-4.1C56,74,56.6,73.8,56.8,74.2L56.8,74.2z M55.7,76.8l1,2.5
		c-0.2,0.1-0.4,0.1-0.6,0.2l-1-2.4C55,76.6,55.6,76.5,55.7,76.8L55.7,76.8L55.7,76.8z M52.9,72.8l1.7,6.9c-0.2,0-0.3,0-0.5,0
		L52.3,73C52.2,72.5,52.8,72.4,52.9,72.8L52.9,72.8z M51.2,75.7l0.3,2.8l-0.6-0.4l-0.3-2.3C50.5,75.3,51.2,75.3,51.2,75.7L51.2,75.7
		z M48.1,73.3l-0.1,4l-0.6,0l0-4C47.5,72.8,48.1,72.9,48.1,73.3L48.1,73.3L48.1,73.3z M45.1,75.4l-0.5,2.9c-0.2,0.1-0.4,0.3-0.7,0.4
		l0.5-3.3C44.5,74.8,45.2,75,45.1,75.4L45.1,75.4L45.1,75.4z M43.6,72.4l-1.6,7.4c-0.2,0-0.4,0.1-0.6,0.1l1.6-7.6
		C43.1,71.8,43.7,72,43.6,72.4L43.6,72.4L43.6,72.4z M40.8,76.2l-1.4,3.4c-0.2-0.1-0.3-0.2-0.5-0.2l1.3-3.3
		C40.4,75.5,41,75.8,40.8,76.2L40.8,76.2L40.8,76.2z M39.8,73.4l-2.9,4.8L36.4,78l2.8-4.9C39.5,72.7,40,73.1,39.8,73.4L39.8,73.4
		L39.8,73.4z"/>
	<path id="_48826640" class="st4" d="M62.1,75.1l6.8,0c-0.1-1.3-0.3-2.3-0.7-3.1c-0.4-0.8-0.9-1.3-1.6-1.7c0,0,0,0,0,0c0,0,0,0,0,0
		c-0.6,0.9-1.3,1.7-2.1,2.5C63.7,73.8,62.9,74.5,62.1,75.1L62.1,75.1z M66.5,70.4C66.5,70.4,66.5,70.4,66.5,70.4 M68.9,75.3l-7.1,0
		c-1.3,1-2.8,1.8-4.4,2.4c-1.6,0.7-3.2,1.2-4.8,1.7c-2-1.7-4.4-2.5-6.9-1.6c-1,0.3-1.8,0.9-2.6,1.5l0,0l-0.1,0.1
		c-3.2-1.2-6.4-2.8-8.8-5.4c-2-2.1-3.1-4.6-3.4-7.4c-0.7-0.6-1.4-1.1-2.2-1.5c-0.7-0.5-1.4-0.8-1.8-1c-0.5-0.3-0.6-0.6-0.6-1
		c-1.4-0.6-2.9-1.2-4.3-1.8l0-1.3l10.7,1.4c0.5,0.9,1.3,1.7,2,2.4c0.2,0.1,0.3,0.3,0.5,0.4h0c0.6,0.6,1.4,1,2.1,1.5
		c1.1,0.7,2.3,1.4,3.5,2c2.6,1.3,5.5,2.2,8.1,2.4c4.5,0.4,9.2-0.9,14.3-5h-1.4v-1.6l0-0.1l1.3-1.3h5.9l1.5,1.3V65h-2.4
		c0,1-0.1,1.9-0.4,2.7c-0.3,0.9-0.7,1.7-1.2,2.5c0.6,0.4,1.2,1,1.6,1.8C68.7,72.8,68.9,73.9,68.9,75.3L68.9,75.3L68.9,75.3
		L68.9,75.3L68.9,75.3z M64.3,72.8c0.8-0.8,1.4-1.7,2.1-2.6c0.6-0.8,1-1.6,1.3-2.5c0.3-0.8,0.4-1.7,0.4-2.7h-0.8
		c-1.4,3.9-4.1,6.8-7.5,8.8c-8.4,4.9-20.9,3.7-26.2-5.3c-0.4-0.7-0.8-1.4-1.2-2c-0.4-0.6-0.8-1.1-1.3-1.7L26.6,63
		c0,0.4,0.1,0.6,0.5,0.8c0.4,0.2,1.1,0.6,1.8,1.1c0.7,0.5,1.6,1,2.2,1.6c1.2,1.5,1.8,2.8,2.3,4c0.6,1.2,1,2.3,2.1,3.3
		c2.5,2.3,5.9,3.5,9.1,4.4l-0.2,0.1c-3.2-0.9-6.5-2.1-9-4.4c-1.1-1-1.6-2.1-2.2-3.3c-0.5-1.1-1-2.3-2.1-3.7c0.3,2.6,1.4,5,3.3,7
		c2,2.1,4.8,3.9,8.6,5.3c0.4-0.4,0.9-0.7,1.3-0.9c0.4-0.3,0.9-0.5,1.3-0.6c2.3-0.8,4.7-0.4,7,1.6c1.5-0.5,3.1-1,4.7-1.7
		c0.1,0,0.2-0.1,0.3-0.1c-1.9,0.6-4,0.9-6,1l-0.3-0.2c2.5-0.1,5.3-0.6,7.6-1.5C61,76,62.9,74.4,64.3,72.8L64.3,72.8L64.3,72.8z
		 M67.1,65h-1.2c-2.8,6.7-11,9.5-17.8,9.2l0,0c-3.7-0.1-7.4-1.6-10.9-4.4c-1.5-1.2-2.8-2.5-4-4l0,0l-1.8-0.8
		c0.4,0.4,0.7,0.9,1.1,1.4c0.4,0.6,0.8,1.3,1.2,2c5.2,8.9,17.7,10.1,26,5.2C63,71.7,65.7,68.8,67.1,65L67.1,65L67.1,65z M65.7,65H65
		c-2.5,2.5-4.6,4.3-7.2,5.5c-2.6,1.2-5.6,1.7-9.9,1.6c-3.2-0.1-6.5-1-9.7-3.2c-1.3-0.9-2.5-1.9-3.6-3c-0.1,0.1-0.2,0.2-0.3,0.3l0,0
		l0,0c-0.2-0.1-0.5-0.2-0.7-0.3c1.1,1.3,2.4,2.6,3.7,3.7c3.5,2.8,7.1,4.2,10.8,4.4l0,0C54.8,74.3,62.9,71.6,65.7,65L65.7,65L65.7,65
		z M64.8,65h-0.4c-3,2.3-5.2,3.9-7.5,4.9c-2.3,1-4.8,1.5-8.4,1.5c-3.7,0.1-7.1-1.2-10.1-3.3c-1.2-0.8-2.2-1.7-3.2-2.8
		c-0.1,0.1-0.3,0.3-0.4,0.4c1.1,1.1,2.3,2.1,3.6,3c3.1,2.1,6.4,3.1,9.6,3.1c4.3,0.1,7.3-0.5,9.8-1.6C60.3,69.2,62.3,67.4,64.8,65
		L64.8,65L64.8,65z M64.1,65h-0.4c-5.2,4.2-10,5.6-14.6,5.2c-4.6-0.4-9-2.7-13.3-5.6c-0.2,0.2-0.4,0.5-0.5,0.7
		c3.4,3.6,8.1,6.1,13.2,6c3.6-0.1,6.1-0.5,8.4-1.5C59,68.8,61.2,67.3,64.1,65L64.1,65z M63.3,62.3l-1.1,1.1l8.1,0l-1.3-1.1H63.3
		L63.3,62.3L63.3,62.3z M62.1,63.5v1.3h1.5l0,0c2.3,0,4.6,0,6.9,0v-1.3L62.1,63.5L62.1,63.5L62.1,63.5z M34.4,65.9l1.2-1.4
		c-0.1-0.1-0.3-0.2-0.4-0.3l-0.8,0.9L34.4,65.9L34.4,65.9L34.4,65.9z M32.8,61.4l-10.1-1.3L34.3,65l0.8-0.9
		C34.2,63.3,33.4,62.4,32.8,61.4L32.8,61.4L32.8,61.4z M22.3,60.2V61l11.9,5l0-0.9L22.3,60.2C22.3,60.2,22.3,60.2,22.3,60.2z"/>
	<path id="_48825680" class="st6" d="M66.4,70.4c0-0.1,0.1-0.1,0.1-0.2 M66.4,70.4C64.6,72.8,64.6,72.8,66.4,70.4z"/>
	<path id="_49907176" class="st2" d="M53.1,55.7l6.6,3.8c-0.8,0.3-1.7,0.7-2.4,1.3c-2.2,1.9-1.8,4.7,0.8,8.5
		c-1.2-0.4-2.3-0.8-3.4-1.6c-2.2-1.5-3.9-4-4.5-8.5C50.8,57.9,51.6,56.7,53.1,55.7L53.1,55.7L53.1,55.7z"/>
	<path id="_49906416" class="st4" d="M53.1,55.6l6.6,3.8l0.2,0.1l-0.2,0.1c-0.4,0.1-0.8,0.3-1.2,0.5c-0.4,0.2-0.8,0.5-1.1,0.8
		c-1.1,0.9-1.5,2.1-1.3,3.5c0.2,1.4,0.9,3,2.2,4.9L58,69.4c-0.6-0.2-1.1-0.3-1.6-0.6c-0.6-0.3-1.1-0.6-1.7-0.9
		c-1.1-0.8-2.1-1.8-2.9-3.1c-0.8-1.4-1.4-3.1-1.7-5.4l0,0c0.3-0.7,0.7-1.3,1.1-2C51.7,56.7,52.3,56.1,53.1,55.6L53.1,55.6L53.1,55.6
		L53.1,55.6L53.1,55.6z M59.4,59.5l-6.3-3.7c-0.7,0.5-1.2,1-1.7,1.6c-0.5,0.6-0.8,1.2-1.1,1.9c0.3,2.2,0.9,4,1.6,5.3
		c0.8,1.4,1.7,2.3,2.8,3.1c0.5,0.4,1.1,0.7,1.7,0.9c0.5,0.2,1,0.4,1.5,0.6c-1.2-1.8-2-3.4-2.1-4.8c-0.2-1.5,0.3-2.7,1.4-3.6
		c0.3-0.3,0.7-0.6,1.1-0.8C58.7,59.8,59.1,59.6,59.4,59.5L59.4,59.5L59.4,59.5z"/>
	<path id="_49905280" class="st7" d="M50,59.9L56.5,70 M39.2,59.5l6.4,11.7 M43.7,70.7l-4.9-10.8 M38.4,60.3l3.8,9.8 M49.8,60.5
		l5.2,10 M49.5,61.5l4,9.4 M57.3,54.8l6,7.4 M56.9,55.3l5.1,8.1 M57.4,60.7l3,7.1 M57.3,60.8l2.4,7.5 M57.1,60.9l1.8,7.8"/>
	<path id="_49015048" class="st6" d="M38.4,66.3l0,1.8L38,67.8l0-1.7C38.1,66.1,38.3,66.2,38.4,66.3z"/>
	<path id="_49013976" class="st4" d="M38.5,66.3l0,1.8l0,0.2l-0.1-0.1l-0.5-0.3l0,0l0,0l0-1.7l0-0.2L38,66l0,0l0,0
		c0.1,0.1,0.2,0.1,0.4,0.2v0C38.4,66.2,38.5,66.2,38.5,66.3L38.5,66.3L38.5,66.3L38.5,66.3L38.5,66.3z M38.3,67.9l0-1.5
		c0,0-0.1,0-0.1-0.1v0c-0.1,0-0.1-0.1-0.2-0.1l0,1.5L38.3,67.9L38.3,67.9z"/>
	<path id="_48599016" class="st6" d="M38.4,60.3l0,4.3c-0.2-0.3-0.4-0.7-0.5-1l0-2.4C38.1,60.9,38.2,60.6,38.4,60.3z"/>
	<path id="_48598720" class="st4" d="M38.5,60.3l0,4.3l-0.2,0c-0.1-0.2-0.2-0.4-0.3-0.5c-0.1-0.2-0.2-0.4-0.2-0.5l0,0l0-2.4l0,0l0,0
		l0,0c0,0,0-0.1,0-0.1c0,0,0-0.1,0.1-0.1h0c0.1-0.2,0.2-0.4,0.4-0.6L38.5,60.3L38.5,60.3z M38.3,64.3l0-3.7
		c-0.1,0.1-0.1,0.2-0.2,0.3v0c0,0,0,0.1-0.1,0.1c0,0,0,0.1,0,0.1l0,2.4c0.1,0.2,0.1,0.3,0.2,0.5C38.3,64.2,38.3,64.2,38.3,64.3
		L38.3,64.3z"/>
	<path id="_48597960" class="st6" d="M37.9,53.7h0.5V55l-0.5-0.4V53.7z"/>
	<path id="_47871320" class="st4" d="M37.9,53.6h0.5v1.6l-0.1-0.1l-0.5-0.4l0,0L37.9,53.6L37.9,53.6L37.9,53.6L37.9,53.6z
		 M38.3,53.7H38v0.9l0.3,0.2V53.7L38.3,53.7z"/>
	<path id="_48503392" class="st6" d="M48.3,68.1l0,3.3l-1,0l0.1-3.8c0,0,0,0,0,0c0,0,0,0,0,0c0,0,0,0,0,0
		C47.7,67.7,48,67.9,48.3,68.1L48.3,68.1L48.3,68.1z"/>
	<path id="_48502632" class="st4" d="M48.5,71.3L48.5,71.3L48.5,71.3l-1.1,0.1l-0.1,0l0-0.1l0.1-4c0.4,0.2,0.7,0.4,1.1,0.6
		L48.5,71.3L48.5,71.3L48.5,71.3z M48.3,71.3l0-3.2c-0.2-0.1-0.5-0.3-0.7-0.4l-0.1,3.6L48.3,71.3z"/>
	<path id="_48834656" class="st6" d="M48,48.5l0,2l-0.4-0.2l0-1.8L48,48.5L48,48.5z"/>
	<path id="_48834296" class="st4" d="M48.2,50.7l-0.7-0.4l0-2l0.6,0.1L48.2,50.7L48.2,50.7L48.2,50.7z M48,50.4l0-1.8l-0.3-0.1
		l0,1.7L48,50.4z"/>
	<path id="_49878792" class="st6" d="M55.2,55.5c0.4,0.2,0.9,0,0.5-0.6l-12.2-7.1c-0.5-0.2-0.6,0.3-0.5,0.4L55.2,55.5L55.2,55.5
		L55.2,55.5z"/>
	<path id="_49878616" class="st4" d="M55.2,55.4c0.1,0.1,0.3,0.1,0.4,0c0.1-0.1,0-0.4-0.1-0.4l-12.2-7c-0.1-0.1-0.2-0.1-0.3,0
		c0,0,0,0-0.1,0.1c0,0,0,0.1,0,0.1l0,0c0,0.1,0,0.1,0,0.1L55.2,55.4L55.2,55.4L55.2,55.4z M55.6,55.7c-0.1,0-0.3,0-0.4-0.1
		l-12.2-7.2c-0.1-0.1-0.1-0.2-0.1-0.3h0c0-0.1,0-0.1,0.1-0.2c0,0,0.1-0.1,0.1-0.1c0.1-0.1,0.3-0.1,0.5,0l0,0l12.2,7.1
		c0.1,0.1,0.2,0.3,0.2,0.5c0,0.1,0,0.2-0.1,0.2C55.7,55.6,55.7,55.7,55.6,55.7L55.6,55.7L55.6,55.7z"/>
	<path id="_49877968" class="st6" d="M56.6,55.3V57l0.4,0.3l-0.1-2L56.6,55.3L56.6,55.3z"/>
	<path id="_48842088" class="st4" d="M56.7,55.4v1.6l0.2,0.1l-0.1-1.7L56.7,55.4z M56.5,57v-1.8l0.1,0l0.4,0l0.1,0l0,0.1l0.1,2
		l0,0.2L57,57.3L56.5,57L56.5,57L56.5,57L56.5,57z"/>
	<path id="_48841008" class="st6" d="M56.6,68.8l0,1.1l0.7-0.3l0-0.5C57.1,69,56.9,68.9,56.6,68.8L56.6,68.8L56.6,68.8z"/>
	<path id="_48749544" class="st4" d="M56.7,68.9l0,0.9l0.6-0.2l0-0.4c-0.1,0-0.2-0.1-0.3-0.1C56.9,69,56.8,68.9,56.7,68.9L56.7,68.9
		z M56.6,69.9l0-1.1l0-0.1l0.1,0.1c0.1,0.1,0.2,0.1,0.4,0.2c0.1,0.1,0.2,0.1,0.4,0.1l0.1,0l0,0.1l0,0.5l0,0.1l-0.1,0L56.7,70
		L56.6,70L56.6,69.9L56.6,69.9z"/>
	<path id="_48748784" class="st6" d="M56.6,61.5v5.2c0.2,0.4,0.4,0.9,0.7,1.4l-0.2-7.1C56.9,61.1,56.8,61.3,56.6,61.5L56.6,61.5
		L56.6,61.5z"/>
	<path id="_49680360" class="st4" d="M56.7,61.5v5.1c0.1,0.2,0.2,0.4,0.3,0.6c0.1,0.1,0.1,0.3,0.2,0.4L57,61.2c0,0-0.1,0.1-0.1,0.1
		C56.8,61.4,56.8,61.5,56.7,61.5L56.7,61.5L56.7,61.5z M56.5,66.7v-5.2l0-0.1c0.1-0.1,0.2-0.2,0.2-0.3c0.1-0.1,0.2-0.2,0.3-0.3
		l0.1-0.1l0,0.2l0.2,7.1l-0.2,0c-0.1-0.2-0.3-0.5-0.4-0.7C56.7,67.2,56.6,66.9,56.5,66.7L56.5,66.7L56.5,66.7L56.5,66.7z"/>
	<path id="_48836640" class="st6" d="M56.8,54.3c0.2,0,0.4,0.2,0.4,0.4c0,0.2-0.2,0.4-0.4,0.4c-0.2,0-0.4-0.2-0.4-0.4
		C56.3,54.5,56.5,54.3,56.8,54.3z"/>
	<path id="_48836504" class="st5" d="M56.8,54.1c0.3,0,0.6,0.3,0.6,0.6c0,0.3-0.3,0.6-0.6,0.6c-0.3,0-0.6-0.3-0.6-0.6
		C56.1,54.4,56.4,54.1,56.8,54.1z M56.8,54.3c0.2,0,0.4,0.2,0.4,0.4c0,0.2-0.2,0.4-0.4,0.4c-0.2,0-0.4-0.2-0.4-0.4
		C56.3,54.5,56.5,54.3,56.8,54.3z"/>
	<path id="_48811016" class="st6" d="M47.9,47.6c0.2,0,0.4,0.2,0.4,0.4c0,0.2-0.2,0.4-0.4,0.4c-0.2,0-0.4-0.2-0.4-0.4
		C47.4,47.8,47.6,47.6,47.9,47.6z"/>
	<path id="_49107880" class="st5" d="M47.9,47.4c0.3,0,0.6,0.3,0.6,0.6c0,0.3-0.3,0.6-0.6,0.6c-0.3,0-0.6-0.3-0.6-0.6
		C47.3,47.7,47.5,47.4,47.9,47.4z M47.9,47.6c0.2,0,0.4,0.2,0.4,0.4s-0.2,0.4-0.4,0.4c-0.2,0-0.4-0.2-0.4-0.4S47.6,47.6,47.9,47.6z"
		/>
	<path id="_48759296" class="st6" d="M38.2,52.7c0.2,0,0.4,0.2,0.4,0.4c0,0.2-0.2,0.4-0.4,0.4s-0.4-0.2-0.4-0.4
		C37.7,52.9,37.9,52.7,38.2,52.7z"/>
	<path id="_49106864" class="st5" d="M38.2,52.6c0.3,0,0.6,0.3,0.6,0.6c0,0.3-0.3,0.6-0.6,0.6c-0.3,0-0.6-0.3-0.6-0.6
		C37.6,52.8,37.8,52.6,38.2,52.6z M38.2,52.7c0.2,0,0.4,0.2,0.4,0.4s-0.2,0.4-0.4,0.4c-0.2,0-0.4-0.2-0.4-0.4
		C37.7,52.9,37.9,52.7,38.2,52.7z"/>
	<path id="_48723304" class="st6" d="M55.5,54.9c0.2,0,0.3,0.1,0.3,0.3c0,0.2-0.1,0.3-0.3,0.3c-0.2,0-0.3-0.1-0.3-0.3
		C55.1,55.1,55.3,54.9,55.5,54.9z"/>
	<path id="_48747688" class="st5" d="M55.5,54.8c0.2,0,0.4,0.2,0.4,0.4c0,0.2-0.2,0.4-0.4,0.4c-0.2,0-0.4-0.2-0.4-0.4
		C55,55,55.2,54.8,55.5,54.8z M55.5,54.9c0.2,0,0.3,0.1,0.3,0.3c0,0.2-0.1,0.3-0.3,0.3c-0.2,0-0.3-0.1-0.3-0.3
		C55.1,55.1,55.3,54.9,55.5,54.9z"/>
	<path id="_48750936" class="st2" d="M43.4,48.6L54.2,55c-4.9,2.5-8.6,11.5,1.5,15.3C45.5,69.6,34.8,58,43.4,48.6L43.4,48.6
		L43.4,48.6z"/>
	<path id="_48747376" class="st4" d="M43.4,48.5l10.8,6.4l0.1,0.1L54.3,55c-1.8,0.9-3.5,2.8-4.3,5c-0.3,0.9-0.5,1.9-0.5,2.8
		c0,1,0.2,1.9,0.7,2.8c0.9,1.7,2.7,3.3,5.7,4.4l-0.1,0.1c-3.9-0.2-7.9-2.1-10.8-4.8c-1.5-1.4-2.7-2.9-3.6-4.7
		c-0.8-1.7-1.3-3.6-1.1-5.4c0.1-2.3,1.1-4.7,3.2-6.9L43.4,48.5L43.4,48.5L43.4,48.5L43.4,48.5z M54,55l-10.6-6.3
		c-2,2.2-2.9,4.5-3.1,6.8c-0.1,1.8,0.3,3.7,1.1,5.3c0.8,1.7,2,3.3,3.5,4.6c2.8,2.5,6.5,4.3,10.1,4.7c-2.7-1.1-4.3-2.6-5.1-4.3
		c-0.5-0.9-0.7-1.9-0.7-2.9c0-1,0.2-2,0.5-2.9C50.6,57.8,52.2,55.9,54,55L54,55L54,55z"/>
	<path id="_48742888" class="st6" d="M34.3,52.7l7.6,6c0.4,0.1,0.8,0.1,0.6-0.5l-7.6-5.9C34.4,51.9,34,52.4,34.3,52.7L34.3,52.7z"/>
	<path id="_49103296" class="st4" d="M34.3,52.6l7.6,6c0.1,0.1,0.4,0.1,0.5-0.1l0,0c0-0.1,0-0.2,0-0.3l-7.6-5.9
		c-0.1-0.1-0.3-0.1-0.4-0.1c0,0-0.1,0-0.1,0.1l0,0c0,0,0,0.1-0.1,0.1C34.2,52.5,34.3,52.6,34.3,52.6L34.3,52.6L34.3,52.6z
		 M41.8,58.8l-7.6-6l0,0c-0.1-0.1-0.1-0.2-0.1-0.4c0-0.1,0.1-0.1,0.1-0.2v0c0,0,0.1-0.1,0.2-0.1c0.2-0.1,0.4-0.1,0.6,0.1l0,0
		l7.6,5.9c0.1,0.1,0.1,0.3,0,0.5h0c0,0.1-0.1,0.2-0.3,0.2C42.2,58.9,41.9,58.8,41.8,58.8L41.8,58.8L41.8,58.8z"/>
	<path id="_48840088" class="st2" d="M34.6,52.9c-5.1,4.8-3.4,10.1,7.6,15.3c-4.8-3.2-5.7-6.6-3-8.8c0.6-0.5,1.3-0.9,2.1-1.2
		L34.6,52.9L34.6,52.9L34.6,52.9z"/>
	<path id="_48815536" class="st4" d="M34.6,53.1c-1,0.9-1.7,1.8-2.1,2.7c-0.5,1.1-0.7,2.3-0.4,3.4c0.3,1.2,0.9,2.4,2,3.6
		c1.5,1.6,3.9,3.3,7.2,4.9c-0.9-0.7-1.6-1.4-2.2-2.1c-0.8-0.9-1.2-1.9-1.3-2.7c-0.1-0.9,0.1-1.7,0.6-2.5c0.2-0.4,0.6-0.7,0.9-1l0,0
		c0.1-0.1,0.2-0.1,0.2-0.2v0c0.1-0.1,0.2-0.1,0.3-0.2h0c0.4-0.3,0.9-0.5,1.5-0.7L34.6,53.1L34.6,53.1L34.6,53.1z M32.3,55.7
		c0.5-1,1.2-1.9,2.2-2.9l0.1-0.1l0.1,0l6.8,5.4l0.1,0.1l-0.1,0.1c-0.6,0.2-1.1,0.5-1.6,0.8l0,0c-0.1,0.1-0.2,0.1-0.3,0.2l0,0
		c-0.1,0.1-0.2,0.1-0.2,0.2l0,0c-0.4,0.3-0.7,0.6-0.9,1c-0.5,0.7-0.7,1.5-0.5,2.3c0.1,0.8,0.6,1.7,1.3,2.7c0.7,0.9,1.8,1.8,3.1,2.7
		l-0.1,0.1c-3.8-1.8-6.6-3.6-8.3-5.4c-1.1-1.2-1.8-2.5-2.1-3.7C31.6,58.1,31.7,56.9,32.3,55.7L32.3,55.7L32.3,55.7z"/>
	<path id="_49113464" class="st6" d="M42.2,58.1c0.2,0,0.4,0.2,0.4,0.4c0,0.2-0.2,0.4-0.4,0.4c-0.2,0-0.4-0.2-0.4-0.4
		C41.8,58.2,42,58.1,42.2,58.1z"/>
	<path id="_48811296" class="st5" d="M42.2,58c0.3,0,0.5,0.2,0.5,0.5c0,0.3-0.2,0.5-0.5,0.5c-0.3,0-0.5-0.2-0.5-0.5
		C41.7,58.2,41.9,58,42.2,58z M42.2,58.1c0.2,0,0.4,0.2,0.4,0.4c0,0.2-0.2,0.4-0.4,0.4c-0.2,0-0.4-0.2-0.4-0.4
		C41.8,58.2,42,58.1,42.2,58.1z"/>
	<path id="_48839264" class="st4" d="M50,59.8l6.5,10.1L56.4,70l-6.5-10.1L50,59.8z M39.3,59.4l6.4,11.7l-0.2,0.1l-6.4-11.7
		L39.3,59.4L39.3,59.4z M43.6,70.8l-4.9-10.8l0.2-0.1l4.9,10.8L43.6,70.8z M38.5,60.3l3.8,9.8l-0.2,0.1l-3.8-9.8L38.5,60.3z
		 M49.8,60.4L55,70.5l-0.2,0.1l-5.2-10.1L49.8,60.4L49.8,60.4L49.8,60.4z M49.5,61.4l4,9.5l-0.2,0.1l-4-9.5L49.5,61.4z M57.2,55
		l6.1,7.1l-0.1,0.1l-6-7L57.2,55L57.2,55L57.2,55z M57.1,55.2l5,8.2L62,63.5l-5-8.2L57.1,55.2z M57.5,60.6l3,7.1l-0.2,0.1l-3-7.1
		L57.5,60.6z M57.3,60.8l2.4,7.5l-0.2,0.1L57.2,61l1.7,7.7l-0.2,0L57,61l0.2,0l0-0.1L57.3,60.8L57.3,60.8L57.3,60.8z"/>
	<path id="_48838968" class="st6" d="M53.1,55.7l6.6,3.8l0.7,0.5c0.3,0,0.5-0.1,0.4-0.4l-0.6-0.4c-2.9-1.8-6-3.7-6.3-3.9L53.1,55.7
		L53.1,55.7L53.1,55.7z"/>
	<path id="_48733400" class="st4" d="M53.3,55.7l6.4,3.8l0,0l0.7,0.4c0.1,0,0.2,0,0.2,0c0,0,0-0.1,0-0.2L60,59.2l0,0l0,0
		c0,0,0,0,0,0c-0.4-0.3-0.8-0.5-1.2-0.8c-0.4-0.3-0.8-0.5-1.2-0.7c-1.9-1.2-3.5-2.1-3.8-2.3L53.3,55.7L53.3,55.7L53.3,55.7z
		 M59.6,59.6L53,55.8l-0.1-0.1l0.1-0.1l0.7-0.4l0,0l0,0c0.2,0.1,1.9,1.1,3.9,2.3c0.4,0.2,0.8,0.5,1.2,0.7c0.4,0.3,0.9,0.5,1.2,0.8
		l0,0l0,0l0,0l0.6,0.4l0,0c0.1,0.2,0,0.4,0,0.4c-0.1,0.1-0.2,0.1-0.4,0.1l0,0L59.6,59.6L59.6,59.6L59.6,59.6L59.6,59.6z"/>
	<path id="_48672816" class="st6" d="M60.5,59.5c0.1,0,0.3,0.1,0.3,0.3c0,0.1-0.1,0.3-0.3,0.3c-0.1,0-0.3-0.1-0.3-0.3
		C60.3,59.6,60.4,59.5,60.5,59.5z"/>
	<path id="_49112720" class="st5" d="M60.5,59.4c0.2,0,0.4,0.2,0.4,0.4c0,0.2-0.2,0.4-0.4,0.4c-0.2,0-0.4-0.2-0.4-0.4
		C60.2,59.6,60.3,59.4,60.5,59.4z M60.5,59.5c0.1,0,0.3,0.1,0.3,0.3c0,0.1-0.1,0.3-0.3,0.3c-0.1,0-0.3-0.1-0.3-0.3
		C60.3,59.6,60.4,59.5,60.5,59.5z"/>
	<path id="_48843064" class="st1" d="M26.2,80c2.3,1.9,5,3.5,8.1,4.9c4.5,2.1,9.7,4.7,13.5,10.1c2.8-4,6.7-7.2,13.5-10.1
		c3.3-1.4,6.1-3.1,8.5-5.1l-0.1-0.3c0,0,0,0-0.1,0.1c-2.7,0-4.5-1.7-7.2-2c-2.2-0.3-4.1,1.6-6.2,2c-1.2,0.2-2.4,0.6-3.4-0.3
		c-1.3-1.1-2.9-1.9-4.7-2c-0.2,0-0.4,0-0.6,0c-1.8,0.1-3,0.9-4.4,1.9c-1,0.8-2.4,0.9-3.6,0.4C38,79,35.4,77,33.1,77.4
		c-2.5,0.5-3.9,2.3-6.8,2.3L26.2,80L26.2,80L26.2,80z"/>
</g>
</svg>
